<svg xmlns="http://www.w3.org/2000/svg" width="256" height="256" viewBox="0 0 256 256" role="img" aria-labelledby="title desc">
  <title id="title">Calculator app icon</title>
  <desc id="desc">Simple blue app icon with a calculator shape and a medical cross button.</desc>
  <rect width="256" height="256" rx="56" fill="#1e88e5" />
  <rect x="48" y="36" width="160" height="184" rx="28" fill="#0f4c81" opacity="0.22" />
  <rect x="68" y="52" width="120" height="36" rx="12" fill="#ffffff" opacity="0.18" />
  <rect x="68" y="100" width="28" height="28" rx="8" fill="#ffffff" opacity="0.16" />
  <rect x="102" y="100" width="28" height="28" rx="8" fill="#ffffff" opacity="0.16" />
  <rect x="136" y="100" width="28" height="28" rx="8" fill="#ffffff" opacity="0.16" />
  <rect x="68" y="134" width="28" height="28" rx="8" fill="#ffffff" opacity="0.16" />
  <rect x="102" y="134" width="28" height="28" rx="8" fill="#ffffff" opacity="0.16" />
  <rect x="136" y="134" width="28" height="28" rx="8" fill="#ffffff" opacity="0.16" />
  <rect x="102" y="168" width="28" height="28" rx="8" fill="#ffffff" opacity="0.16" />
  <rect x="109" y="107" width="14" height="14" rx="4" fill="#ffffff" />
  <rect x="98" y="111" width="36" height="6" rx="3" fill="#ffffff" />
  <circle cx="160" cy="182" r="10" fill="#ffffff" opacity="0.16" />
</svg>
